<svg viewBox="0 0 29.608 39.688" xmlns="http://www.w3.org/2000/svg"><path style="fill:#fff;stroke-width:.0776287" d="M3.893 39.783c-.861-.18-1.765-.808-2.254-1.565-.413-.638-.567-1.275-.527-2.181.028-.658.062-.797.316-1.308.265-.532.535-.822 3.93-4.214 3.307-3.302 3.67-3.642 3.898-3.642.536 0 .707.604.301 1.065l-.235.269.76.504c1.418.94 2.807 1.526 3.621 1.526h.4l1.067-1.068c.586-.588 1.066-1.094 1.066-1.126 0-.031-.068-.057-.15-.057-.519 0-2.206-.81-3.462-1.662l-.846-.574-.188.148c-.278.218-.663.192-.86-.057-.088-.113-.16-.278-.16-.367 0-.11 1.97-2.136 6.235-6.413 5.86-5.875 6.249-6.281 6.452-6.747 1.06-2.425-.58-5-3.176-4.988-1.186.006-1.706.278-3.07 1.603-1.113 1.08-1.613 1.377-2.569 1.518-1.754.258-3.48-.897-3.95-2.646-.244-.905.001-2.304.496-2.829.297-.315.484-.342.774-.114.265.209.264.469-.005 1.053-.838 1.815.834 3.83 2.766 3.335.6-.154.957-.401 1.782-1.236l.652-.66-.055-.414c-.123-.946-.711-2.342-1.49-3.542l-.419-.644-.347.238c-.19.132-.506.377-.702.547-.454.393-.685.454-.956.253-.307-.23-.324-.654-.036-.926C14.17 1.711 16.102.736 17.947.341c1.074-.23 3.098-.25 4.138-.043 3.324.665 6.16 2.836 7.62 5.835.776 1.592 1.009 2.668 1.009 4.658 0 1.579-.087 2.198-.474 3.377-.29.886-.978 2.21-1.552 2.989-.384.52-3.23 3.403-11.191 11.333-5.872 5.85-10.798 10.718-10.946 10.82-.633.43-1.837.645-2.658.473zm1.608-1.252c.313-.117.596-.309.932-.631l.483-.464-.768-.257c-.991-.333-1.643-.665-2.726-1.388-.482-.322-.902-.586-.934-.586-.118 0-.253.6-.25 1.111.002.444.045.611.266 1.045.574 1.125 1.818 1.61 2.997 1.17zm3.58-3.274 1.112-1.113-.568-.188c-.634-.208-.788-.407-.64-.827.127-.364.387-.428 1.009-.25.295.084.711.153.926.153h.39l.84-.844.842-.844-.553-.168c-1.032-.314-2.325-.99-3.429-1.792l-.514-.375-.983.985-.982.984.525.387c.462.34.527.42.548.668.02.23-.015.313-.185.446-.313.247-.503.205-1.141-.253l-.582-.417-1.231 1.235c-.73.73-1.198 1.257-1.15 1.29 1.16.794 2.254 1.415 3.024 1.715.289.112 1.175.306 1.437.315.151.004.444-.244 1.306-1.107zm9.132-9.132c.467-.468.833-.863.814-.878a5.239 5.239 0 0 0-.538-.163c-.886-.24-2.7-1.21-3.6-1.926l-.3-.238-.962.96c-.53.528-.951.993-.938 1.032.047.142 1.348.975 2.132 1.365.838.417 1.708.688 2.232.695.295.004.356-.04 1.16-.847zm3.059-3.058 1.113-1.116-.293-.055c-.894-.168-2.642-1.073-3.975-2.06l-.255-.189-1.201 1.2c-.66.659-1.201 1.226-1.201 1.26 0 .1 1.465 1.026 2.236 1.412.768.385 1.64.652 2.151.659.3.004.355-.04 1.425-1.111zm3.525-3.525 1.378-1.38-.991-.006c-1.368-.009-3.163-.368-4.297-.86l-.47-.203-.848.845c-.467.466-.849.864-.848.886 0 .087 1.474 1.018 2.134 1.348.656.329 1.462.623 1.902.696.63.105.576.139 2.04-1.326zm2.069-2.732c.83-.172.841-.181 1.43-1.167.567-.951 1.28-2.91 1.119-3.072-.028-.028-.277.075-.553.23-.276.154-.599.28-.717.28-.286 0-.575-.28-.575-.557 0-.262.187-.465.637-.69.183-.092.57-.31.857-.487l.524-.32v-.633c0-.934-.194-1.916-.59-2.985l-.189-.51-1.027 1.018c-.993.984-1.889 1.668-2.696 2.058l-.35.169-.004.712c-.004.728-.142 1.352-.43 1.949a3.479 3.479 0 0 0-.148.33c0 .054.351.017.903-.097.536-.11.602-.11.777.004a.74.74 0 0 1 .255.296c.077.208-.042.576-.217.67-.273.145-1.352.315-2.007.315h-.683l-.927.93c-.51.51-.91.943-.891.96.085.08 1.22.45 1.69.553.785.17.827.175 1.993.185.805.007 1.277-.03 1.819-.141zm-1.541-8.323c.71-.465 2.299-1.95 2.695-2.52l.17-.245-.361-.493c-.645-.879-2.19-2.353-2.325-2.218-.023.024-.199.509-.39 1.078-.366 1.096-.95 2.395-1.327 2.952-.125.184-.25.375-.28.424-.028.05.074.24.227.422.152.183.363.501.467.706.104.206.235.374.29.374.056 0 .431-.216.834-.48zM22.85 6.346c.485-.752 1.074-2.176 1.443-3.488l.157-.558-.672-.282c-.661-.277-1.887-.604-2.576-.687l-.352-.042.23.87c.216.817.23.954.223 2.267-.004.768-.02 1.496-.034 1.618-.024.206.006.232.44.392.256.093.536.211.621.261.085.05.173.092.194.093.022.001.168-.199.326-.444zm-4.052-.02a6.14 6.14 0 0 1 .776-.145l.427-.048.091-.349c.129-.495.124-2.029-.009-2.717-.127-.66-.413-1.635-.51-1.737-.074-.078-1.123.058-1.823.235-.63.16-1.669.565-1.669.651 0 .039.16.318.356.62.533.824 1.164 2.193 1.402 3.04l.21.751.2-.103c.11-.056.357-.146.549-.199z" transform="translate(-1.106 -.155)"/></svg>