<svg viewBox="0 0 32.933 39.688" xmlns="http://www.w3.org/2000/svg"><path style="fill:#fff;stroke-width:.0776617" d="M15.806 39.808c-1.448-.15-1.437-.14-1.375-1.339.025-.48.103-1.253.173-1.716.07-.463.109-.86.087-.882-.022-.022-1.275-.07-2.783-.108-3.648-.089-8.184-.284-9.913-.427-.654-.054-.867-.197-.867-.584 0-.27.799-1.522 2.363-3.705.5-.697.927-1.317.95-1.378.03-.076-.01-.112-.124-.112-.498 0-.835-.46-.618-.841.189-.333.314-.365.978-.253l.606.102.247-.3c.135-.165.874-1.086 1.642-2.048a198.12 198.12 0 0 1 1.837-2.271c.386-.46.42-.524.27-.524-.294 0-1.899.383-2.773.662-.459.147-.897.267-.974.268-.199.002-.52-.346-.52-.564 0-.147 1.531-2.528 2.306-3.585.384-.524 1.11-.352 1.11.263 0 .088-.314.62-.699 1.182-.384.563-.69 1.032-.679 1.043.011.01.37-.065.796-.168.986-.239 2.213-.422 2.825-.422.372 0 .51.034.631.156.331.331.236.52-.99 1.958-.629.738-1.717 2.057-2.417 2.931-1.256 1.566-1.27 1.59-1.065 1.645.216.058 2.294.255 3.651.346.664.045.796.077.951.233.236.235.23.533-.017.78-.193.193-.216.196-.951.148a63.831 63.831 0 0 1-3.583-.325l-1.042-.128-.174.201c-.571.664-2.943 4.081-2.878 4.146.05.05 2.719.2 6.146.345 1.266.053 5.107.1 8.768.106l6.515.01.15.187a.456.456 0 0 1 .104.421c-.091.46-.116.465-2.11.521-1.005.028-1.846.069-1.867.09-.021.022.018.418.087.881.07.463.147 1.244.172 1.735.054 1.068.015 1.131-.763 1.25-.697.106-3.395.151-4.183.07zm3.22-1.138.601-.05-.05-.513a38.675 38.675 0 0 0-.176-1.386l-.126-.873H15.91l-.128.873c-.07.48-.151 1.108-.179 1.394l-.05.52.418.028c.783.055 2.45.058 3.054.007zm7.611-3.072c-.385-.203-.461-.625-.163-.906.173-.161.29-.177 1.884-.248 2.448-.11 3.996-.207 4.042-.253.086-.086-2.679-3.968-4.138-5.807l-.407-.513-.88.305c-3.42 1.186-7.703 1.963-11.73 2.128-1.24.051-1.284.048-1.446-.114a.583.583 0 0 1 .038-.86c.17-.134.314-.161.848-.161 1.558 0 4.762-.35 6.83-.747 1.738-.333 5.284-1.302 5.498-1.502.06-.055-1.03-1.414-2.601-3.247-.747-.872-.834-1.111-.518-1.427.156-.156.218-.164.96-.118.777.047 1.991.251 2.831.476.233.062.434.103.447.09.028-.028-.851-1.316-1.744-2.554l-.658-.912h-1.08c-1.45 0-3.704-.14-3.972-.246-.397-.157-.479-.546-.188-.885l.18-.208 1.626.095c.895.052 1.833.082 2.084.067l.457-.027-.72-.932a114.422 114.422 0 0 0-3.01-3.725c-.398-.469-.744-.934-.769-1.035a.565.565 0 0 1 .33-.64c.199-.075 1.916.077 2.614.232.16.036.29.042.29.015-.001-.028-.176-.33-.388-.67-.213-.341-.387-.677-.387-.747 0-.249.307-.536.573-.536.393 0 .315-.099 1.82 2.298.347.554.329.878-.063 1.08-.16.083-.28.092-.476.036-.43-.124-2.261-.47-2.297-.433-.019.018.292.43.69.914.715.87 2.281 2.865 2.933 3.737l.335.447.618-.02c.568-.02.63-.006.766.163a.69.69 0 0 1 .149.358c0 .246-.277.57-.513.599-.196.024-.194.031.25.645 1.14 1.58 2.593 3.809 2.593 3.978 0 .218-.322.566-.52.564-.078 0-.516-.121-.975-.268-.96-.306-2.573-.682-2.78-.647-.131.022.441.763 2.084 2.695l.29.342.378-.167c.523-.231.849-.22 1.051.037.089.113.161.262.161.333 0 .218-.238.481-.56.618l-.309.13.56.726a114.305 114.305 0 0 1 3.615 5.024c.94 1.406 1.04 1.667.744 1.962-.184.185-.474.214-3.545.359-1.367.064-2.731.131-3.032.15-.3.017-.615-.004-.699-.048zm-1.38-2.452c-.91-.523-1.16-1.607-.57-2.481.735-1.09 2.413-.954 2.97.242.254.544.245 1.007-.03 1.534a1.714 1.714 0 0 1-2.37.705zm1.264-1.119c.284-.305.178-.748-.22-.912-.187-.078-.268-.073-.459.025-.368.19-.432.516-.167.853a.563.563 0 0 0 .846.034zm-18.057.756c-.375-.375-.142-.927.392-.927.333 0 .582.234.582.548 0 .248-.328.57-.582.57-.11 0-.287-.086-.392-.19zm11.017-.12c-.544-.22-.356-1.087.236-1.087.23 0 .594.305.594.498 0 .218-.172.494-.362.58-.218.1-.24.1-.468.009zm-5.284-6.333c-.634-.316-.954-.843-.953-1.572.001-.606.32-1.166.834-1.469a1.764 1.764 0 0 1 1.75.001 1.72 1.72 0 0 1-.094 3.025c-.547.277-1.003.281-1.537.015zm1.06-1.041c.077-.042.182-.178.234-.303.078-.188.073-.27-.025-.46-.193-.372-.577-.442-.878-.159-.49.46.076 1.24.67.922zm5.767 1.08a.563.563 0 0 1 .035-.845c.113-.088.265-.16.34-.16.073 0 .226.072.338.16.403.317.171 1.004-.339 1.004a.644.644 0 0 1-.374-.158zm-2.422-4.345c-.34-.34-.1-.935.383-.949.527-.015.776.567.415.968-.168.186-.603.176-.798-.02zm-6.162-1.618c-.174-.192-.166-.654.014-.817.212-.192.676-.167.824.045.167.237.151.573-.034.759-.199.198-.63.205-.804.013zm-3.355-1.835c-.31-.31-.272-.433.429-1.362.6-.794.585-.753.312-.894-.47-.242-.465-.855.008-1.05.193-.08.28-.07.595.068l.368.163.194-.216c.466-.518 1.87-2.285 1.841-2.314-.035-.036-1.872.312-2.296.434-.196.056-.316.047-.476-.035-.51-.264-.44-.502.652-2.216l.964-1.512-.258-.065c-.343-.085-.53-.305-.52-.614.011-.43.247-.548.985-.497l.623.044 1.107-1.492c.61-.82 1.523-1.99 2.03-2.598l.922-1.105-.256-.272c-.335-.355-.45-.722-.41-1.321.059-.937.732-1.555 1.694-1.555.96 0 1.635.618 1.694 1.555.038.6-.066.934-.406 1.306l-.263.286.827.994 1.111 1.339.285.345.301-.292c.35-.338.702-.388.955-.136.264.264.201.58-.2 1.008l-.355.38.433.575c.48.637.55.949.277 1.222-.175.175-.528.203-.719.058-.07-.054-.295-.329-.5-.612l-.373-.514-.675.408c-1.688 1.019-3.538 1.537-5.866 1.643l-1.12.05-.693 1.047c-.382.575-.693 1.072-.693 1.105 0 .033.13.03.29-.005.161-.035.77-.12 1.352-.187 1.166-.134 1.406-.1 1.553.222.134.296.034.514-.538 1.178-.293.339-.926 1.1-1.408 1.693-.667.82-.852 1.095-.772 1.147.336.218 3.868 1.178 5.093 1.384.692.116.953.299.953.666 0 .287-.24.58-.476.58-.613 0-4.098-.869-5.58-1.39l-.847-.3-.147.166c-.08.09-.315.392-.521.67-.79 1.063-1.076 1.222-1.48.818zm6.838-10.188a10.422 10.422 0 0 0 3.913-1.57c.084-.056-.031-.243-.531-.86-.989-1.222-1.65-1.986-1.716-1.986-.112 0-2.302 2.69-3.534 4.341l-.226.303.736-.056a15.724 15.724 0 0 0 1.358-.172zm1.997-6.036c.355-.27.273-.925-.128-1.026-.33-.082-.588.027-.701.297-.236.56.36 1.085.829.73zm-.812 13.546a1.914 1.914 0 0 1-.96-.716c-.204-.293-.225-.384-.225-.964 0-.588.02-.669.234-.974.305-.434.927-.768 1.43-.768.516 0 1.142.332 1.442.764.213.308.233.392.233.978 0 .582-.02.67-.227.969a2.12 2.12 0 0 1-.56.522c-.362.213-1.014.303-1.367.19zm.812-1.198c.355-.27.273-.925-.128-1.026-.33-.082-.588.027-.701.297-.232.552.367 1.08.829.73zm.682-3.777c-.347-.347-.087-.932.415-.932a.52.52 0 0 1 .543.544c0 .49-.609.737-.958.388z" transform="translate(-1.128 -.162)"/></svg>