<svg viewBox="0 0 40.167 39.688" xmlns="http://www.w3.org/2000/svg"><path style="fill:#fff;stroke-width:.0826822" d="M20.614 42.79v-1.117l-.825.414c-.454.228-.837.415-.852.415-.051 0-.585-1.155-.55-1.188.02-.019.53-.28 1.132-.581l1.095-.548v-.95c0-.523-.011-.95-.025-.95-.014 0-.58.223-1.256.496-.677.273-1.319.496-1.426.496-.107 0-.286-.098-.397-.219-.196-.211-.203-.258-.203-1.439V36.4l-.992.424-.992.425v2.029H14v-.703c0-.386-.031-.703-.069-.703-.037 0-.415.15-.84.335-.423.184-.796.305-.826.269-.075-.088-.509-1.118-.48-1.138.013-.008.228-.101.478-.207l.821-.348.366-.158-.552-.37c-.303-.204-.552-.39-.552-.415 0-.08.667-1.027.723-1.027.03 0 .457.266.948.59l.892.59.744-.312c.41-.171.744-.335.744-.362 0-.028-.363-.237-.806-.465-.878-.45-1.037-.648-.884-1.095.06-.177.258-.32.884-.64.443-.228.806-.437.806-.465 0-.028-.334-.191-.744-.363l-.744-.312-.892.59c-.491.325-.917.59-.948.59-.056 0-.723-.947-.723-1.027 0-.024.249-.21.552-.414l.552-.37-.366-.158c-.201-.087-.57-.243-.82-.349a14.07 14.07 0 0 1-.479-.207c-.029-.02.405-1.049.48-1.137.03-.036.403.085.827.269.424.184.802.334.84.334.037 0 .068-.316.068-.703v-.702h1.323v2.029l.992.424.992.424v-1.236c0-1.202.006-1.241.203-1.438.112-.112.29-.203.397-.203.107 0 .749.223 1.426.496.677.273 1.242.496 1.256.496.014 0 .025-.428.025-.95v-.95l-1.095-.548a31.409 31.409 0 0 1-1.132-.581c-.035-.033.499-1.188.55-1.188.015 0 .398.186.852.414l.825.414v-2.234h1.323v2.234l.826-.414c.454-.228.837-.414.852-.414.05 0 .585 1.155.55 1.188-.02.018-.53.28-1.132.58l-1.096.548v.95c0 .523.012.95.026.95.014 0 .579-.222 1.256-.495s1.295-.496 1.373-.496c.536 0 .653.306.653 1.724v1.153l.992-.424.992-.424v-2.029h1.323v.702c0 .387.03.703.068.703.038 0 .416-.15.84-.334.424-.184.796-.305.827-.269.075.088.509 1.118.48 1.137-.014.009-.229.102-.479.207-.25.106-.62.262-.82.349l-.367.157.552.37c.304.204.552.39.552.415 0 .08-.666 1.027-.722 1.027-.03 0-.457-.265-.948-.59l-.893-.59-.744.312c-.41.172-.744.335-.744.363 0 .028.363.237.806.464.878.45 1.038.648.884 1.096-.06.176-.258.32-.884.64-.443.228-.806.437-.806.465 0 .027.335.19.744.362l.744.312.893-.59c.49-.324.917-.59.948-.59.056 0 .722.947.722 1.027 0 .025-.248.211-.552.415l-.552.37.366.158.821.348c.25.106.465.199.478.207.03.02-.404 1.05-.479 1.138-.03.036-.403-.085-.827-.27-.424-.183-.802-.334-.84-.334-.037 0-.068.317-.068.703v.703h-1.323v-2.029l-.992-.425-.992-.424v1.154c0 1.417-.116 1.724-.653 1.724-.078 0-.696-.223-1.373-.496a49.975 49.975 0 0 0-1.256-.496c-.014 0-.026.427-.026.95v.95l1.096.548c.602.3 1.112.562 1.131.58.036.034-.498 1.189-.55 1.189-.014 0-.397-.187-.851-.415l-.826-.414v2.234h-1.323zm-.888-5.585.888-.353v-1.868l-.682.293c-.375.162-.821.35-.992.42l-.31.125v.91c0 .694.024.9.103.867l.993-.394zm4.196-.482v-.9l-.31-.126c-.171-.07-.617-.258-.993-.42l-.682-.293v1.866l.93.379c.512.208.959.382.993.386.034.005.062-.397.062-.892zm-4.817-2.517c.239-.099.434-.198.434-.22 0-.023-.325-.177-.72-.343l-.72-.3-.603.298c-.331.164-.602.319-.602.344 0 .026.27.181.6.345.577.288.609.294.888.177.16-.067.485-.203.723-.301zm6.553-.22c0-.026-.271-.181-.603-.345l-.603-.299-.719.301c-.395.166-.72.32-.72.342 0 .023.325.177.72.342l.72.301.602-.298c.332-.164.603-.32.603-.345zm-5.044-1.93v-.937l-.888-.353-.993-.395c-.079-.032-.103.173-.103.864v.906l.971.42c.535.231.981.423.993.426.011.003.02-.416.02-.931zm2.998.218.31-.126v-.909c0-.695-.025-.9-.104-.868l-.992.395-.889.353v1.868l.682-.294c.376-.161.822-.35.993-.419zm-26.81 8.141v-1.508l-1.075 1.073-1.075 1.073-.474-.475-.475-.474 1.073-1.075 1.073-1.075h-3.016v-1.323h3.016l-1.073-1.075-1.073-1.075.475-.474.474-.474 1.075 1.072 1.075 1.073v-3.016h1.323v3.016L-.8 34.605l1.075-1.072.474.474.474.474-1.072 1.075-1.073 1.075h3.016v1.323H-.922l1.073 1.075 1.072 1.075-.474.474-.474.475L-.8 39.98l-1.075-1.073v3.016h-1.323zm10.02-1.934a1.775 1.775 0 0 1-.497-.43c-.29-.38-.315-1.116-.05-1.47.757-1.015 2.273-.653 2.411.576.112.986-.992 1.77-1.865 1.324Zm-4.728-8.317v-.513l-.415.408-.415.408-.473-.473-.473-.473.888-.89.888-.89v-1.616l-1.427 1.2-1.426 1.198-.432-.473c-.238-.26-.431-.492-.43-.515.002-.023.837-.73 1.857-1.57l1.854-1.53.002-.89.002-.889L.527 23.7c-1.458.972-1.586 1.04-1.858.99-.522-.099-.544-.193-.544-2.3v-1.885l-.662.333-.661.332v3.554h-1.323v-2.896l-.662.333-.661.332v2.231h-1.323v-1.573l-.835.42c-.46.23-.846.407-.859.393-.062-.07-.538-1.063-.538-1.122 0-.038.335-.233.744-.433.41-.2.744-.39.744-.419 0-.03-.205-.19-.455-.356-.25-.166-.455-.322-.455-.347 0-.025.153-.269.338-.542.217-.32.38-.482.454-.454.063.024.442.264.842.533l.727.49.61-.308.611-.308-1.134-.682c-1.093-.657-1.13-.688-1.019-.86.063-.098.216-.353.34-.565l.224-.387 1.497.898 1.496.899.587-.294c.323-.162.599-.305.613-.317.015-.013-.488-.33-1.116-.705-1.224-.731-1.427-.908-1.43-1.249-.002-.326.18-.483 1.43-1.227.628-.374 1.13-.69 1.116-.703-.014-.013-.29-.155-.613-.317l-.587-.294-1.496.898-1.497.898-.224-.386a19.638 19.638 0 0 0-.34-.565c-.11-.172-.074-.203 1.02-.86l1.133-.683-.61-.307-.61-.308-.728.49c-.4.268-.78.508-.842.533-.074.028-.237-.134-.454-.454-.185-.274-.338-.518-.338-.543 0-.024.205-.18.455-.346.25-.167.455-.327.455-.356 0-.03-.335-.218-.744-.42-.41-.2-.744-.394-.744-.432 0-.059.476-1.053.538-1.123.013-.014.4.163.859.394l.835.42v-1.573h1.323v2.23l.661.333.662.333v-2.896h1.323v3.553l.661.333.662.332v-3.812l.219-.202c.12-.112.315-.203.434-.203.138 0 .772.37 1.766 1.034l1.55 1.034-.002-.89-.002-.889-1.854-1.53c-1.02-.84-1.855-1.548-1.857-1.57-.001-.023.192-.255.43-.515l.432-.474 1.426 1.2 1.427 1.199V7.158l-.888-.89-.888-.891.473-.473.473-.474.415.409.415.408V4.22h1.322v1.027l.415-.408.414-.409.474.474.473.473-.888.89-.888.89v1.616l1.427-1.2 1.426-1.199.432.474c.238.26.431.492.43.515-.002.022-.837.73-1.857 1.57l-1.854 1.53-.002.89-.002.89 1.55-1.035c.994-.663 1.628-1.034 1.766-1.034.119 0 .314.091.434.203l.22.202v3.812l.66-.332.662-.333v-3.553h1.323v2.896l.661-.333.662-.333v-2.23h1.323v1.572l.835-.419c.46-.23.846-.408.859-.394.061.07.538 1.064.538 1.123 0 .038-.335.232-.744.433-.41.2-.744.389-.744.419 0 .03.205.19.455.356.25.166.454.322.454.346 0 .025-.152.27-.337.543-.217.32-.38.482-.454.454-.063-.025-.442-.265-.842-.534l-.727-.489-.61.308-.611.307 1.134.682c1.092.658 1.13.69 1.019.86-.063.099-.216.353-.34.566l-.224.386-1.497-.898-1.496-.898-.587.294c-.323.162-.6.305-.614.318-.015.013.512.347 1.17.74 1.321.791 1.49.98 1.299 1.442-.077.184-.386.413-1.298.959-.659.394-1.186.728-1.171.74.015.014.29.157.614.319l.587.294 1.496-.899 1.497-.898.224.387c.124.212.277.467.34.565.11.172.073.203-1.02.86l-1.133.682.61.308.61.307.728-.489c.4-.269.779-.509.842-.533.074-.028.237.134.454.454.185.273.337.517.337.542 0 .025-.204.181-.454.347-.25.166-.455.326-.455.356 0 .03.335.218.744.419.41.2.744.395.744.433 0 .059-.477 1.053-.538 1.122-.013.014-.4-.163-.859-.393l-.835-.42v1.573h-1.323v-2.231l-.662-.332-.661-.333v2.896H8.708V21.17l-.661-.332-.662-.333v1.864c0 2.097-.03 2.224-.55 2.321-.264.05-.405-.026-1.852-.99l-1.567-1.044.002.89.002.888 1.854 1.53c1.02.841 1.855 1.548 1.857 1.571 0 .023-.192.255-.43.515l-.432.473-1.426-1.199-1.427-1.2v1.616l.888.89.888.891-.473.473-.474.473-.414-.408-.415-.408v1.027H2.094Zm0-10.372v-1.27l-1.323.663-1.323.663v2.976l1.323-.882 1.323-.881Zm3.968 1.543v-1.487l-1.323-.663-1.323-.662v2.538l1.303.875a87.88 87.88 0 0 0 1.323.882c.011.003.02-.664.02-1.483zM1.184 17.45c0-.024-.534-.31-1.186-.636l-1.186-.59-1.003.592c-.552.326-1.003.611-1.003.634 0 .023.451.308 1.003.634l1.003.593 1.186-.592c.652-.325 1.186-.611 1.186-.635Zm6.887.413c.35-.204.635-.39.634-.413 0-.023-.452-.308-1.004-.634l-1.003-.593-1.186.591c-.652.326-1.186.612-1.186.636 0 .024.53.31 1.178.634l1.178.59.378-.22 1.011-.59Zm-5.977-2.757v-1.268L.77 12.955l-1.323-.881v2.976l1.302.658c.716.361 1.311.66 1.323.662.011.002.02-.567.02-1.265zm3.968-1.543v-1.488l-1.323.881-1.323.882v2.538l1.323-.662 1.323-.663zm-12.47 16.32a1.775 1.775 0 0 1-.496-.43c-.29-.38-.316-1.116-.051-1.47.758-1.015 2.274-.653 2.412.576.111.987-.992 1.77-1.865 1.324zm33.073-4.63a1.775 1.775 0 0 1-.496-.43c-.29-.38-.316-1.117-.051-1.47.757-1.016 2.274-.653 2.412.576.111.986-.992 1.77-1.865 1.324zm-9.922-6.615a1.775 1.775 0 0 1-.496-.43c-.29-.38-.316-1.116-.051-1.47.758-1.015 2.274-.652 2.412.577.111.986-.992 1.769-1.865 1.323zm6.517-4.68V12.45l-1.075 1.073-1.075 1.072-.474-.474-.474-.474 1.072-1.075 1.073-1.075H19.29v-1.323h3.016l-1.073-1.075-1.072-1.075.474-.474.474-.475 1.075 1.073L23.26 9.22V6.204h1.323V9.22l1.075-1.073 1.075-1.073.474.475.475.474-1.073 1.075-1.073 1.075h3.016v1.323h-3.016l1.073 1.075 1.073 1.075-.475.474-.474.474-1.075-1.072-1.075-1.073v3.015H23.26z" transform="translate(9.4 -4.22)"/></svg>